# xmcd
#
# Track frame offsets: 
#        150
#        19497
#        36021
#        56608
#        78002
#        91828
#        109670
#        130080
#        148148
#        162026
#        177578
#        192278
#        206689
#        226460
#        245757
#
# Disc length: 3497 seconds
#
# Revision: 0
# Processed by: cddbd v1.5.2PL0 Copyright (c) Steve Scherf et al.
# Submitted via: ExactAudioCopy v1.0b1
#
DISCID=cb0da70f
DTITLE=Ronnie Milsap - The Music of Ronnie Milsap CD 3 (of 3)
DYEAR=2010
DGENRE=Crossover
TTITLE0=Lost in the Fifties Tonight (In the Still of the Night)
TTITLE1=Happy, Happy Birthday Baby
TTITLE2=In Love
TTITLE3=How Do I Turn You On
TTITLE4=Snap Your Fingers
TTITLE5=Make No Mistake, She's Mine
TTITLE6=Where Do the Nights Go
TTITLE7=Old Folks
TTITLE8=Don't You Ever Get Tired (OfHurting Me)
TTITLE9=Houston Solution
TTITLE10=A Woman in Love
TTITLE11=Stranger Things Have Happened
TTITLE12=Are You Lovin' Me Like I'm Lovin' You
TTITLE13=Since I Don't Have You
TTITLE14=Turn That Radio On
EXTD=RCA Nashville/Legacy 88697 76096-2
EXTT0=
EXTT1=
EXTT2=
EXTT3=
EXTT4=
EXTT5=
EXTT6=
EXTT7=
EXTT8=
EXTT9=
EXTT10=
EXTT11=
EXTT12=
EXTT13=
EXTT14=
PLAYORDER=
